<svg xmlns="http://www.w3.org/2000/svg" viewBox="-620.001 104.863 172.195 198.247">
  <defs>
    <style>
      .cls-1 {
        fill: #ffb900;
      }
    </style>
  </defs>
  <path id="Path_7" data-name="Path 7" class="cls-1" d="M35.53,132.241a6.667,6.667,0,1,1-9.428,9.428C22.331,138.133-1.946,114.328.175,78.03,1.825,47.625,20.917,28.769,26.1,23.819,47.787,3.077,73.242.72,80.313.249c24.748-1.886,42.9,7.071,47.14,9.428,4.007,2.121,33.705,18.149,42.426,51.854a72.768,72.768,0,0,1,2.357,18.856c.236,25.456-11.314,44.076-16.5,51.854-2.357,3.535-6.6,9.664-25.927,28.284-10.371,9.9-24.513,23.1-42.426,37.712l-9.428-9.428c5.421-4.95,20.977-19.327,28.284-25.927,17.206-15.792,25.927-23.806,33-33,7.307-9.428,12.728-16.735,16.5-28.284a63.445,63.445,0,0,0,2.357-33,62.08,62.08,0,0,0-14.142-28.284,70.618,70.618,0,0,0-18.856-16.5,74,74,0,0,0-28.284-9.428,73.778,73.778,0,0,0-30.641,2.357c-6.128,1.886-26.4,8.014-40.069,28.284A68.818,68.818,0,0,0,14.317,80.387C13.139,109.142,31.759,128.705,35.53,132.241Z" transform="translate(-620.045 104.873)"/>
  <path id="Subtraction_3" data-name="Subtraction 3" class="cls-1" d="M-8465.324-3532.65A50.734,50.734,0,0,1-8516-3583.326,50.732,50.732,0,0,1-8465.324-3634a50.732,50.732,0,0,1,50.676,50.674A50.734,50.734,0,0,1-8465.324-3532.65Zm-20.052-35.863q-5.87,4.026-11.77,8.051h19.329l.428-.507q4.042-4.786,8.089-9.57l4.407-.547h0v0q-4.462,5.334-8.92,10.622h14.85q2.234-5.918,4.469-11.906,10.73-1.327,21.458-2.706l1.182-.192a21.918,21.918,0,0,1-3.3,4.67c-5.5,6.216-12.381,7.806-15.318,8.485.138,0,14.348-.9,20.033-12.02a12.309,12.309,0,0,0,.72-1.458c3.217-.466,6.424-.83,9.178-1.135q-4.411.083-8.786.133a18.13,18.13,0,0,0,.771-9.562,18.515,18.515,0,0,0-4.973-8.923l-.447-.5c-5.638-6.087-12.788-7.862-17.52-9.036l-.628-.156a58.075,58.075,0,0,0-12.843-1.475,45.374,45.374,0,0,0-21.806,5.248l-.525.29c-4.311,2.381-11.523,6.365-12.2,13.379a11.38,11.38,0,0,0,.94,6.127c-3.987-2.346-7.8-4.968-11.492-7.5,1.054,1.438,2.028,2.782,2.91,4l.166.229c.76,1.048,1.43,1.972,2.054,2.805,1.2,1.719,2.556,3.338,3.985,5.053.545.652,1.1,1.317,1.672,2.017l.962,1.075a15.792,15.792,0,0,0,3.28,3.167,14.8,14.8,0,0,0,7.54,2.122l1.054-.137Zm11.277-7.741h-5.6a10.657,10.657,0,0,1-6.6-2.12,10.316,10.316,0,0,1-3.535-5.185,11.844,11.844,0,0,1-.707-3.772c0-3.537,2.36-5.9,3.771-7.307,3.852-4.011,9.8-6.782,17.206-8.013a44.425,44.425,0,0,1,7.934-.717,37.472,37.472,0,0,1,12.336,1.894,43.654,43.654,0,0,1,13.673,7.542c1.443,1.444,6.083,6.712,5.185,13.907a13.729,13.729,0,0,1-.838,3.455q-3.847.043-7.674.077h-.164c-4.644.044-9.271.089-13.894.159,2.021-5.416,4.046-10.832,6.069-16.185-4.284,5.07-8.563,10.194-12.846,15.322l-.111.133-.673.807h-3.882c5.243-6.172,9.609-11.264,13.74-16.027q-11.626,7.925-23.135,15.855l-.121.083-.13.089Z" transform="translate(7930.779 3770.706)"/>
</svg>
