<svg xmlns="http://www.w3.org/2000/svg" viewBox="3390 209.893 20.291 17.985">
  <defs>
    <style>
      .cls-1 {
      fill: #e5e5e5;
      }

      .cls-2 {
      fill: #0066b2;
      }
    </style>
  </defs>
  <g id="Group_140" data-name="Group 140" transform="translate(3390 209.831)">
    <path id="Path_8" data-name="Path 8" class="cls-1" d="M6.449,8.763a.649.649,0,0,0,.794-.079A.639.639,0,0,0,7.4,8.31V2.144a.615.615,0,0,1,.325-.651.5.5,0,0,1,.325,0q6.583,2,13.173,3.984a1.192,1.192,0,0,1,.381.19,1.128,1.128,0,0,1,.317.4,1.032,1.032,0,0,1,.087.5v8.563a.785.785,0,0,1-.246.619.565.565,0,0,1-.159.079.785.785,0,0,1-.476,0c-.468-.127-.928-.246-1.4-.373a.755.755,0,0,0-.825.135.619.619,0,0,0-.159.4.686.686,0,0,0,.238.476c.19.183.389.206.873.317.659.143.548.151.952.238a5.847,5.847,0,0,0,.873.159,1.747,1.747,0,0,0,1.508-.873,1.218,1.218,0,0,0,.111-.524V5.676a1.129,1.129,0,0,0,0-.286,1.268,1.268,0,0,0-.111-.357,1.667,1.667,0,0,0-.873-.6c-.675-.19-5.841-1.77-12.975-3.912C8.877.414,8.409.311,7.949.2A2.116,2.116,0,0,0,7.64.121,1.426,1.426,0,0,0,6.608.2.952.952,0,0,0,6.29.518a1.053,1.053,0,0,0-.159.4,1.561,1.561,0,0,0-.032.262c0,.262.008,3.055.032,6.88a.85.85,0,0,0,.159.555A.585.585,0,0,0,6.449,8.763Z" transform="translate(-5.616 0)"/>
    <path id="Path_9" data-name="Path 9" class="cls-1" d="M127.935,91.181h0a1.135,1.135,0,0,1-1.135-1.135V80.635a1.135,1.135,0,0,1,1.135-1.135h0a1.135,1.135,0,0,1,1.135,1.135v9.412A1.135,1.135,0,0,1,127.935,91.181Z" transform="translate(-116.738 -73.134)"/>
    <path id="Path_10" data-name="Path 10" class="cls-1" d="M85.035,109.412h0a1.135,1.135,0,0,1-1.135-1.135v-7.142A1.135,1.135,0,0,1,85.035,100h0a1.135,1.135,0,0,1,1.135,1.135v7.142A1.145,1.145,0,0,1,85.035,109.412Z" transform="translate(-77.242 -92.007)"/>
    <path id="Path_11" data-name="Path 11" class="cls-1" d="M44.135,119.342h0A1.135,1.135,0,0,1,43,118.207v-4.872a1.135,1.135,0,0,1,1.135-1.135h0a1.135,1.135,0,0,1,1.135,1.135v4.872A1.14,1.14,0,0,1,44.135,119.342Z" transform="translate(-39.588 -103.239)"/>
    <path id="Path_12" data-name="Path 12" class="cls-1" d="M1.135,133.139h0A1.135,1.135,0,0,1,0,132v-2.27A1.135,1.135,0,0,1,1.135,128.6h0a1.135,1.135,0,0,1,1.135,1.135V132A1.135,1.135,0,0,1,1.135,133.139Z" transform="translate(0 -118.337)"/>
    <path id="Path_13" data-name="Path 13" class="cls-2" d="M255.7,185.8" transform="translate(-235.409 -170.998)"/>
    <path id="Path_14" data-name="Path 14" class="cls-2" d="M235.2,181.7" transform="translate(-216.535 -167.224)"/>
  </g>
</svg>
