<svg xmlns="http://www.w3.org/2000/svg" viewBox="3317.631 2169.214 356.805 314.787">
  <defs>
    <style>
      .cls-1 {
        opacity: 0.063;
      }

      .cls-2 {
        fill: #c9c9c9;
      }
    </style>
  </defs>
  <g id="Group_58" data-name="Group 58" class="cls-1" transform="translate(3459 1716)">
    <path id="Subtraction_1" data-name="Subtraction 1" class="cls-2" d="M105,210.008a105,105,0,1,1,105-105A105.124,105.124,0,0,1,105,210.008ZM63.456,135.7q-12.16,8.342-24.385,16.68H79.122q8.813-10.441,17.646-20.882l2.153-.267,6.981-.863h0v0q-9.241,11.051-18.48,22.009h30.769q4.633-12.259,9.265-24.674c14.108-1.745,29.259-3.631,44.46-5.6q1.229-.206,2.443-.4a45.343,45.343,0,0,1-6.841,9.675c-11.4,12.9-25.659,16.18-31.745,17.583.287,0,29.733-1.858,41.514-24.909a25.223,25.223,0,0,0,1.493-3.02c6.591-.951,13.011-1.684,19.021-2.352q-9.144.171-18.21.275a37.48,37.48,0,0,0,1.6-19.81c-1.783-8.926-6.907-14.675-10.3-18.48-.352-.4-.653-.734-.937-1.057-11.684-12.621-26.51-16.3-36.321-18.727l-1.285-.319A120.371,120.371,0,0,0,105.74,57.5c-16.614,0-31.815,3.658-45.181,10.871l-1.106.612C50.529,73.919,35.591,82.176,34.185,96.7c-.585,6.467.974,10.731,1.956,12.7-8.361-4.919-16.277-10.363-23.933-15.629,2.367,3.156,4.471,6.058,6.327,8.618l.078.108c1.577,2.177,3.01,4.153,4.342,5.927,2.507,3.583,5.327,6.962,8.313,10.538,1.1,1.32,2.238,2.68,3.409,4.11.635.707,1.219,1.363,1.762,1.971l.195.218c3.086,3.467,4.787,5.376,6.832,6.6a30.663,30.663,0,0,0,15.629,4.4l2.128-.276Zm51.394-16.039h-8.04c10.527-12.386,19.841-23.25,28.476-33.215-16.273,11.1-32.623,22.33-48.435,33.194l-11.64.021a22.063,22.063,0,0,1-13.673-4.4,21.553,21.553,0,0,1-7.329-10.743A24.887,24.887,0,0,1,52.746,96.7c0-7.33,4.891-12.22,7.813-15.141,7.975-8.307,20.3-14.049,35.655-16.605a92.1,92.1,0,0,1,16.436-1.483c14.678,0,24.494,3.524,25.565,3.925a90.43,90.43,0,0,1,28.328,15.629c2.992,2.992,12.606,13.911,10.742,28.814a28.19,28.19,0,0,1-1.731,7.16q-7.929.09-15.816.161l-.253,0c-9.482.091-19.286.185-28.964.332l.459-1.231c4.042-10.817,8.079-21.621,12.117-32.308-9.4,11.128-18.921,22.532-28.132,33.56l-.116.14Z" transform="translate(-69.306 519.195)"/>
    <path id="Subtraction_2" data-name="Subtraction 2" class="cls-2" d="M-8124.942-2407.213h-42.346c19.263-17.955,32.591-31.177,43.712-45.634,15.71-20.274,26.578-35.306,34.188-58.608,7.74-23.216,9.383-46.221,4.883-68.375-6.313-31.559-23.616-51.915-29.3-58.6a145.7,145.7,0,0,0-39.073-34.189,153.547,153.547,0,0,0-58.606-19.536,159.13,159.13,0,0,0-20.294-1.3,148.064,148.064,0,0,0-43.2,6.185l-.255.079c-13.512,4.156-54.63,16.8-82.771,58.528-14.538,21.177-22.741,45.615-24.381,72.635l-.038.625c-2.541,62,39.189,102.977,43.956,107.446a13.832,13.832,0,0,1,0,19.536,13.72,13.72,0,0,1-9.769,4.028,13.72,13.72,0,0,1-9.769-4.028c-9.725-9.117-58.021-58.324-53.724-131.867,2.254-41.519,21.333-81.412,53.724-112.329,40.436-38.678,87.735-47.2,112.331-48.84,4.67-.356,9.413-.536,14.1-.536,45.151,0,77.546,16.72,83.582,20.072,16.339,8.652,70.968,41.97,87.911,107.446a150.9,150.9,0,0,1,4.883,39.073c.34,36.756-11.163,72.906-34.187,107.446C-8092.905-2442.688-8099.452-2432.868-8124.942-2407.213Z" transform="translate(8270.629 3175.214)"/>
  </g>
</svg>
