<svg xmlns="http://www.w3.org/2000/svg" viewBox="3476 16 65.635 33.445">
  <defs>
    <style>
      .cls-1 {
        fill: #4a5459;
      }
    </style>
  </defs>
  <g id="Group_50" data-name="Group 50" transform="translate(3476 15.995)">
    <path id="Path_1" data-name="Path 1" class="cls-1" d="M41,66.975H55.2Q65.078,55.349,74.981,43.7,57.979,55.326,41,66.975Z" transform="translate(-31.457 -33.525)"/>
    <path id="Path_2" data-name="Path 2" class="cls-1" d="M114,66.207h10.939q4.434-11.765,8.844-23.507Q123.9,54.465,114,66.207Z" transform="translate(-87.467 -32.758)"/>
    <path id="Path_3" data-name="Path 3" class="cls-1" d="M65.635,21.579,56.488,22.7q-19.97,2.479-39.963,4.934A10.332,10.332,0,0,1,10.939,26a17.81,17.81,0,0,1-3.026-3.026c-1.606-1.815-2.933-3.468-4.189-5.12-1-1.327-2.281-3.049-3.724-5.12l8.379,5.586a8.791,8.791,0,0,1-.7-4.422c.582-5.283,6.284-8.379,9.31-10.008C27.93-2.044,39.264.4,42.36,1.1c3.421.791,8.891,2.118,13.267,6.75a13.922,13.922,0,0,1,3.957,6.982,13.629,13.629,0,0,1-1.4,8.844c-3.933,7.774-13.825,8.775-14.663,8.844A19.674,19.674,0,0,0,54.7,26.234a12.9,12.9,0,0,0,3.491-6.982c.675-5.446-3.049-9.519-3.724-10.241A29.9,29.9,0,0,0,44.455,3.425a31.266,31.266,0,0,0-14.9-.931c-2.095.372-8.425,1.559-12.568,5.819A8.393,8.393,0,0,0,14.2,13.666a7.7,7.7,0,0,0,.465,2.793,8.285,8.285,0,0,0,2.56,3.724,7.835,7.835,0,0,0,4.888,1.629c5.423.023,10.869.023,16.292,0C47.48,21.789,56.557,21.7,65.635,21.579Z" transform="translate(0 0)"/>
  </g>
</svg>
